<svg width="16" height="17" viewBox="0 0 16 17" fill="none" xmlns="http://www.w3.org/2000/svg">
<path d="M14.8708 15.2528L11.0018 11.3839C11.8549 10.3886 12.3498 9.10081 12.3498 7.68721C12.3498 4.54557 9.80342 2 6.6626 2C3.52179 2 1 4.54639 1 7.68721C1 10.828 3.54612 13.3744 6.6626 13.3744C8.07566 13.3744 9.36539 12.856 10.3593 12.0032L14.2282 15.8721C14.3376 15.9555 14.4497 15.9993 14.5618 15.9993C14.6739 15.9993 14.7857 15.9566 14.871 15.8711C15.043 15.7012 15.043 15.4224 14.8708 15.2528ZM6.68721 12.4995C4.0104 12.4995 1.87496 10.3394 1.87496 7.68721C1.87496 5.035 4.0104 2.87495 6.68721 2.87495C9.36403 2.87495 11.4995 5.01039 11.4995 7.68721C11.4995 10.364 9.33942 12.4995 6.68721 12.4995Z" fill="#7D3CE9"/>
</svg>
